<!DOCTYPE svg PUBLIC "-//W3C//DTD SVG 20010904//EN" "http://www.w3.org/TR/2001/REC-SVG-20010904/DTD/svg10.dtd">
<svg version="1.0" xmlns="http://www.w3.org/2000/svg" width="460px" height="387px" viewBox="0 0 4600 3870" preserveAspectRatio="xMidYMid meet">
<g id="layer1" fill="#00FFDD" stroke="none">
 <path d="M3440 3773 c-30 -2 -59 -8 -63 -12 -5 -5 8 -70 28 -146 20 -75 34 -139 32 -141 -2 -2 -73 48 -157 111 -84 63 -159 115 -166 115 -19 0 -177 -61 -191 -74 -7 -6 -9 -16 -5 -22 4 -6 135 -86 292 -179 157 -92 286 -169 288 -170 2 -1 55 -501 64 -605 l3 -35 -61 -9 c-102 -14 -109 -7 -159 159 -28 93 -69 196 -122 305 l-81 165 -113 111 c-79 77 -145 131 -212 173 -136 84 -134 84 -304 126 l-152 37 -187 -21 c-143 -16 -213 -29 -298 -56 -106 -33 -117 -39 -231 -129 l-120 -94 -28 54 c-15 30 -33 54 -41 54 -7 0 -73 -25 -145 -54 -72 -30 -131 -53 -131 -50 0 3 25 52 56 110 39 72 53 109 46 116 -5 5 -51 19 -102 30 -77 17 -94 18 -104 7 -7 -8 -28 -65 -46 -126 -18 -62 -35 -113 -37 -113 -2 0 -67 47 -143 105 -77 58 -147 108 -155 111 -18 7 -185 -83 -185 -100 0 -10 156 -124 431 -316 9 -7 -36 -449 -48 -461 -5 -5 -113 10 -282 42 -171 32 -277 47 -283 41 -15 -15 -151 -973 -140 -984 14 -14 1243 -191 1254 -180 5 5 12 35 15 66 3 31 9 56 12 56 4 0 25 -18 46 -41 22 -22 59 -52 82 -67 l43 -27 0 -263 0 -262 -30 -6 c-23 -5 -37 -19 -61 -60 -16 -29 -35 -56 -40 -60 -6 -3 -121 -23 -256 -44 -195 -31 -249 -42 -266 -58 -12 -11 -31 -22 -42 -24 -21 -4 -33 -34 -18 -49 5 -5 159 -20 342 -33 183 -14 338 -29 343 -34 29 -29 -9 -32 -342 -32 -186 0 -341 -4 -344 -9 -3 -5 0 -13 7 -19 9 -7 241 -92 588 -214 17 -6 34 -26 50 -59 14 -31 34 -56 51 -65 l28 -15 0 -117 c0 -137 16 -185 62 -190 18 -2 30 3 37 16 7 14 31 226 31 278 0 1 15 12 34 23 27 17 39 36 57 87 15 43 31 70 44 75 11 5 142 33 290 64 286 59 325 69 308 86 -13 13 -400 55 -588 64 -130 6 -171 14 -147 29 5 3 177 -8 382 -25 205 -16 377 -26 381 -22 5 5 5 13 1 19 -17 27 -195 103 -407 174 l-230 77 -21 42 c-11 24 -34 55 -52 70 l-32 26 -13 195 c-8 107 -13 198 -11 202 2 3 39 -4 82 -17 70 -21 103 -24 377 -30 l300 -7 240 120 240 121 69 106 c38 58 73 108 77 110 4 3 14 -25 22 -61 9 -37 20 -71 25 -76 11 -11 1050 116 1064 130 11 11 -67 751 -80 764 -5 5 -92 1 -213 -10 -112 -11 -208 -16 -213 -11 -5 4 -28 137 -51 294 l-42 286 27 22 c14 12 124 94 243 181 119 88 217 165 217 170 0 17 -92 146 -104 146 -6 0 -102 -77 -213 -170 -111 -94 -204 -170 -207 -170 -3 0 -7 80 -8 178 l-3 177 -65 1 c-36 0 -90 -1 -120 -3z m-1971 -462 c-23 -26 -38 -37 -51 -33 -10 2 -17 6 -16 8 14 13 85 63 91 63 5 1 -6 -16 -24 -38z m-273 -166 c15 -14 44 -30 66 -37 21 -6 38 -12 38 -14 0 -1 -20 -50 -45 -109 -30 -72 -47 -129 -51 -174 -11 -103 -17 -113 -61 -106 -21 4 -43 8 -49 10 -11 3 36 421 50 444 11 17 22 14 52 -14z"/>
 </g>

</svg>